<?xml version="1.0" encoding="UTF-8" standalone="no"?>
<!DOCTYPE svg PUBLIC "-//W3C//DTD SVG 1.1//EN" "http://www.w3.org/Graphics/SVG/1.1/DTD/svg11.dtd">
<svg width="100%" height="100%" viewBox="0 0 594 134" version="1.1" xmlns="http://www.w3.org/2000/svg" xmlns:xlink="http://www.w3.org/1999/xlink" xml:space="preserve" xmlns:serif="http://www.serif.com/" style="fill-rule:evenodd;clip-rule:evenodd;stroke-linejoin:round;stroke-miterlimit:2;">
    <g transform="matrix(1,0,0,1,-1187.53,-796.496)">
        <g transform="matrix(0.122933,0,0,0.122933,1053.89,594.365)">
            <path d="M2495.08,2502.11L2495.08,1644.23L2535.69,1644.23L2535.69,2502.11L2495.08,2502.11ZM2517.92,2502.11L2517.92,2465.31L3015.39,2465.31L3011.51,2502.11L2517.92,2502.11Z" style="fill-rule:nonzero;"/>
            <path d="M3296.54,2502.11C3242.88,2502.11 3194.85,2489.86 3152.46,2465.36C3110.08,2440.86 3076.63,2407.42 3052.14,2365.03C3027.64,2322.65 3015.39,2274.62 3015.39,2220.96C3015.39,2168.07 3027.25,2120.63 3050.97,2078.63C3074.69,2036.63 3107.36,2003.38 3148.96,1978.88C3190.57,1954.38 3237.43,1942.14 3289.54,1942.14C3337.76,1942.14 3380.34,1952.83 3417.28,1974.22C3454.23,1995.61 3483.2,2025.35 3504.2,2063.46C3525.2,2101.57 3535.7,2145.51 3535.7,2195.29C3535.7,2198.4 3535.5,2203.26 3535.11,2209.87C3534.72,2216.48 3533.75,2224.85 3532.2,2234.96L3041.05,2234.96L3041.05,2201.12L3508.86,2201.12L3498.36,2209.29C3501.47,2163.4 3494.47,2122.96 3477.37,2087.96C3460.26,2052.96 3435.56,2025.55 3403.28,2005.72C3371.01,1985.88 3332.7,1975.97 3288.37,1975.97C3241.71,1975.97 3200.68,1986.27 3165.3,2006.88C3129.91,2027.49 3102.3,2055.88 3082.47,2092.05C3062.63,2128.21 3052.72,2170.4 3052.72,2218.62C3052.72,2268.4 3063.02,2311.95 3083.63,2349.28C3104.24,2386.62 3133.22,2415.78 3170.55,2436.78C3207.88,2457.78 3251.43,2468.28 3301.21,2468.28C3338.54,2468.28 3372.95,2461.28 3404.45,2447.28C3435.95,2433.28 3462.59,2412.28 3484.37,2384.28L3508.86,2408.78C3484.75,2437.56 3454.23,2460.31 3417.28,2477.03C3380.34,2493.75 3340.09,2502.11 3296.54,2502.11Z" style="fill-rule:nonzero;"/>
            <path d="M3831.37,2730.77C3780.04,2730.77 3733.37,2721.05 3691.38,2701.6C3649.38,2682.16 3615.55,2654.16 3589.88,2617.61L3612.05,2595.44C3633.05,2625.78 3662.6,2650.27 3700.71,2668.94C3738.82,2687.61 3782.76,2696.94 3832.54,2696.94C3907.2,2696.94 3966.5,2676.52 4010.44,2635.69C4054.39,2594.86 4076.36,2539.83 4076.36,2470.62L4076.36,2334.12L4086.86,2208.13L4076.36,2085.63L4076.36,1953.81L4112.52,1953.81L4112.52,2470.62C4112.52,2522.72 4100.86,2568.22 4077.53,2607.11C4054.19,2646 4021.33,2676.33 3978.95,2698.1C3936.56,2719.88 3887.37,2730.77 3831.37,2730.77ZM3848.87,2490.45C3796.76,2490.45 3750.29,2478.59 3709.46,2454.87C3668.63,2431.14 3636.35,2398.67 3612.63,2357.45C3588.91,2316.23 3577.05,2269.18 3577.05,2216.29C3577.05,2164.18 3588.71,2117.52 3612.05,2076.3C3635.38,2035.08 3667.46,2002.41 3708.29,1978.31C3749.12,1954.19 3795.2,1942.14 3846.53,1942.14C3887.76,1942.14 3925.28,1949.72 3959.11,1964.89C3992.95,1980.06 4021.33,2001.64 4044.28,2029.64C4067.22,2057.63 4082.97,2091.08 4091.52,2129.96L4091.52,2303.79C4082.19,2341.9 4066.05,2374.95 4043.11,2402.95C4020.17,2430.95 3992.17,2452.53 3959.11,2467.7C3926.06,2482.87 3889.31,2490.45 3848.87,2490.45ZM3853.53,2456.62C3897.87,2456.62 3936.95,2446.7 3970.78,2426.87C4004.61,2407.03 4030.86,2379.04 4049.53,2342.87C4068.19,2306.71 4077.53,2264.51 4077.53,2216.29C4077.53,2168.85 4068,2127.24 4048.94,2091.47C4029.89,2055.69 4003.45,2027.5 3969.61,2006.89C3935.78,1986.28 3896.31,1975.97 3851.2,1975.97C3805.32,1975.97 3764.48,1986.28 3728.71,2006.89C3692.93,2027.5 3664.93,2055.69 3644.71,2091.47C3624.49,2127.24 3614.38,2168.46 3614.38,2215.13C3614.38,2261.79 3624.68,2303.4 3645.3,2339.95C3665.91,2376.51 3694.1,2405.09 3729.87,2425.7C3765.65,2446.31 3806.87,2456.62 3853.53,2456.62Z" style="fill-rule:nonzero;"/>
            <rect x="4160.69" y="1953.8" width="36.165" height="536.642"/>
            <path d="M4287.85,2490.44C4277.75,2490.44 4269.29,2486.73 4262.45,2479.3C4255.62,2471.88 4252.21,2463.41 4252.21,2453.91C4252.21,2443.81 4255.62,2435.34 4262.45,2428.51C4269.29,2421.68 4277.75,2418.26 4287.85,2418.26C4297.95,2418.26 4306.41,2421.68 4313.24,2428.51C4320.08,2435.34 4323.49,2443.81 4323.49,2453.91C4323.49,2463.41 4320.08,2471.88 4313.24,2479.3C4306.41,2486.73 4297.95,2490.44 4287.85,2490.44Z" style="fill-rule:nonzero;"/>
            <path d="M4595.47,2502.11C4543.36,2502.11 4496.5,2489.67 4454.89,2464.78C4413.28,2439.89 4380.23,2406.06 4355.73,2363.28C4331.23,2320.51 4318.98,2272.68 4318.98,2219.79C4318.98,2167.68 4331.23,2120.63 4355.73,2078.63C4380.23,2036.63 4413.28,2003.38 4454.89,1978.88C4496.5,1954.38 4543.36,1942.14 4595.47,1942.14C4646.8,1942.14 4693.27,1954.38 4734.88,1978.88C4776.49,2003.38 4809.54,2036.63 4834.04,2078.63C4858.54,2120.63 4870.79,2167.68 4870.79,2219.79C4870.79,2273.45 4858.54,2321.48 4834.04,2363.87C4809.54,2406.25 4776.49,2439.89 4734.88,2464.78C4693.27,2489.67 4646.8,2502.11 4595.47,2502.11ZM4595.47,2468.28C4640.58,2468.28 4681.02,2457.39 4716.8,2435.61C4752.57,2413.84 4780.96,2384.09 4801.96,2346.37C4822.96,2308.65 4833.46,2266.07 4833.46,2218.62C4833.46,2172.74 4822.96,2131.52 4801.96,2094.96C4780.96,2058.41 4752.57,2029.44 4716.8,2008.05C4681.02,1986.66 4640.58,1975.97 4595.47,1975.97C4550.36,1975.97 4509.72,1986.66 4473.56,2008.05C4437.39,2029.44 4408.81,2058.41 4387.81,2094.96C4366.81,2131.52 4356.32,2173.12 4356.32,2219.79C4356.32,2267.23 4366.81,2309.62 4387.81,2346.95C4408.81,2384.28 4437.39,2413.84 4473.56,2435.61C4509.72,2457.39 4550.36,2468.28 4595.47,2468.28Z" style="fill-rule:nonzero;"/>
            <path d="M5321.25,2490.44L5321.25,2169.62C5321.25,2111.29 5304.53,2064.24 5271.09,2028.46C5237.64,1992.68 5192.92,1974.8 5136.93,1974.8C5098.82,1974.8 5065.18,1983.16 5036.01,1999.88C5006.85,2016.6 4983.9,2039.35 4967.18,2068.13C4950.46,2096.9 4942.1,2130.35 4942.1,2168.45L4917.6,2154.45C4917.6,2114.01 4927.52,2077.85 4947.35,2045.96C4967.18,2014.07 4994.02,1988.8 5027.85,1970.13C5061.68,1951.47 5099.98,1942.13 5142.76,1942.13C5185.53,1942.13 5223.06,1951.85 5255.34,1971.3C5287.61,1990.74 5312.69,2017.57 5330.58,2051.79C5348.47,2086.01 5357.41,2125.29 5357.41,2169.62L5357.41,2490.44L5321.25,2490.44ZM4905.94,2490.44L4905.94,1953.8L4942.1,1953.8L4942.1,2490.44L4905.94,2490.44Z" style="fill-rule:nonzero;"/>
            <path d="M5673.7,2502.11C5620.04,2502.11 5572.01,2489.86 5529.62,2465.36C5487.24,2440.86 5453.79,2407.42 5429.3,2365.03C5404.8,2322.65 5392.55,2274.62 5392.55,2220.96C5392.55,2168.07 5404.41,2120.63 5428.13,2078.63C5451.85,2036.63 5484.52,2003.38 5526.12,1978.88C5567.73,1954.38 5614.59,1942.14 5666.7,1942.14C5714.92,1942.14 5757.5,1952.83 5794.44,1974.22C5831.39,1995.61 5860.36,2025.35 5881.36,2063.46C5902.36,2101.57 5912.86,2145.51 5912.86,2195.29C5912.86,2198.4 5912.66,2203.26 5912.27,2209.87C5911.88,2216.48 5910.91,2224.85 5909.36,2234.96L5418.21,2234.96L5418.21,2201.12L5886.02,2201.12L5875.52,2209.29C5878.64,2163.4 5871.64,2122.96 5854.53,2087.96C5837.41,2052.96 5812.72,2025.55 5780.44,2005.72C5748.17,1985.88 5709.86,1975.97 5665.53,1975.97C5618.87,1975.97 5577.84,1986.27 5542.46,2006.88C5507.07,2027.49 5479.46,2055.88 5459.63,2092.05C5439.8,2128.21 5429.88,2170.4 5429.88,2218.62C5429.88,2268.4 5440.18,2311.95 5460.79,2349.28C5481.4,2386.62 5510.38,2415.78 5547.71,2436.78C5585.04,2457.78 5628.59,2468.28 5678.37,2468.28C5715.7,2468.28 5750.11,2461.28 5781.61,2447.28C5813.11,2433.28 5839.75,2412.28 5861.53,2384.28L5886.02,2408.78C5861.91,2437.56 5831.39,2460.31 5794.44,2477.03C5757.5,2493.75 5717.25,2502.11 5673.7,2502.11Z" style="fill-rule:nonzero;"/>
        </g>
        <g transform="matrix(0.122933,0,0,0.122933,1053.89,594.365)">
            <circle cx="1749.01" cy="2442.46" r="59.597"/>
            <path d="M1689.41,1708.99L1698.54,1644.23L1944.97,1644.23L1944.97,2502.06L1875.92,2502.06L1875.92,1709.66L1689.41,1708.99L1689.41,1708.99Z"/>
            <path d="M1087.14,1644.24L1156.23,1644.24L1155.86,2437.31L1614.45,2437.31L1605.4,2502.07L1087.14,2502.07L1087.14,1644.24L1087.14,1644.24Z"/>
        </g>
    </g>
</svg>
